<svg version="1.1" id="Layer_1" xmlns="http://www.w3.org/2000/svg" xmlns:xlink="http://www.w3.org/1999/xlink" x="0px" y="0px"
	 width="100%" viewBox="0 0 417 116" enable-background="new 0 0 417 116" xml:space="preserve">
<path fill="#161616" opacity="1.000000" stroke="none" 
	d="
M303.000000,117.000000 
	C202.000015,117.000000 101.500023,117.000000 1.000027,117.000000 
	C1.000018,78.333351 1.000018,39.666698 1.000009,1.000037 
	C139.999969,1.000025 278.999939,1.000025 417.999939,1.000012 
	C417.999939,39.666630 417.999939,78.333260 417.999969,116.999939 
	C379.833344,117.000000 341.666656,117.000000 303.000000,117.000000 
M60.846886,83.388748 
	C60.846886,78.302994 60.846886,73.217239 60.846886,67.772888 
	C71.417465,67.772888 81.342384,67.772888 91.388596,67.772888 
	C91.388596,64.346710 91.388596,61.300888 91.388596,57.919548 
	C81.109612,57.919548 71.170990,57.919548 61.059387,57.919548 
	C61.059387,51.663490 61.059387,45.749081 61.059387,39.214684 
	C71.632271,39.214684 82.011864,39.214684 92.341553,39.214684 
	C92.341553,35.699944 92.341553,32.823616 92.341553,30.008305 
	C77.414497,30.008305 62.867134,30.008305 48.058025,30.008305 
	C48.058025,40.175610 48.058025,49.980988 48.058025,59.786366 
	C48.058025,69.729362 48.058025,79.672363 48.058025,89.651260 
	C52.562210,89.651260 56.597004,89.651260 60.846886,89.651260 
	C60.846886,87.648033 60.846886,86.000824 60.846886,83.388748 
M178.909744,54.808678 
	C179.621017,55.453888 180.298416,56.605827 181.049454,56.656002 
	C184.186935,56.865612 187.346542,56.744316 190.889053,56.744316 
	C191.539062,51.804939 194.735275,49.958126 199.638306,50.904285 
	C203.517960,51.652966 204.837372,54.798523 204.223221,61.985535 
	C202.133530,61.985535 199.991486,61.868690 197.866913,62.011566 
	C194.231705,62.256020 190.513611,62.261929 186.997833,63.084209 
	C179.350540,64.872795 175.406570,70.990585 176.394592,78.752281 
	C177.400116,86.651588 182.475006,90.932999 190.723602,90.920357 
	C197.171417,90.910469 201.886047,87.682434 205.647903,82.552101 
	C209.299576,90.718300 213.330048,92.195793 222.884491,89.084869 
	C222.884491,87.207016 222.884491,85.270859 222.884491,82.836182 
	C217.010345,84.302971 216.754227,80.504547 216.741409,76.517723 
	C216.723755,71.027809 216.799026,65.536537 216.700500,60.048252 
	C216.611923,55.114624 215.642288,50.485676 211.681900,46.973862 
	C202.291504,38.647118 184.170197,42.522224 178.909744,54.808678 
M137.858841,46.642921 
	C137.076691,45.650173 136.382065,43.904194 135.496521,43.801300 
	C132.441589,43.446335 129.320053,43.664677 126.415558,43.664677 
	C126.415558,59.391178 126.415558,74.488892 126.415558,89.797638 
	C130.502365,89.797638 134.248260,89.797638 138.365707,89.797638 
	C138.365707,82.136803 138.111053,74.654442 138.473328,67.202080 
	C138.653915,63.487659 139.483566,59.630531 140.895569,56.198311 
	C142.364746,52.627029 145.819000,51.436592 149.668213,52.004353 
	C153.606476,52.585251 155.269760,55.469883 155.839996,58.908035 
	C156.326385,61.840767 156.277237,64.877098 156.300674,67.868889 
	C156.357712,75.146095 156.319244,82.424057 156.319244,89.724770 
	C160.609818,89.724770 164.338364,89.724770 168.097458,89.724770 
	C168.097458,78.468460 168.448715,67.485222 167.987778,56.536175 
	C167.610092,47.564301 161.780182,42.836285 152.898544,42.780434 
	C146.235733,42.738533 141.879379,46.286469 138.121078,52.372868 
	C138.016144,50.035027 137.958252,48.745167 137.858841,46.642921 
M238.797180,43.748520 
	C235.351852,43.748520 231.906509,43.748520 228.673462,43.748520 
	C228.673462,59.388153 228.673462,74.495422 228.673462,89.801834 
	C232.775146,89.801834 236.519409,89.801834 240.758835,89.801834 
	C240.758835,81.664383 240.487793,73.711937 240.883148,65.792763 
	C241.057938,62.291508 241.743286,58.209866 243.758987,55.596615 
	C245.393921,53.476978 249.513611,52.034874 252.249344,52.400665 
	C254.386444,52.686409 256.736725,55.925568 257.806061,58.371056 
	C258.876617,60.819408 258.649811,63.909004 258.685974,66.721466 
	C258.783936,74.331352 258.719543,81.943336 258.719543,89.775887 
	C262.817749,89.775887 266.549927,89.775887 270.214722,89.775887 
	C270.214722,78.285240 270.482025,67.020760 270.108368,55.777576 
	C269.904053,49.628956 266.469208,45.152477 260.336792,43.324345 
	C253.677307,41.339085 247.054962,43.480354 242.873886,48.756813 
	C242.169067,49.646313 241.423141,50.503265 240.414795,51.712818 
	C240.088242,48.665874 239.841660,46.365101 238.797180,43.748520 
M341.449707,73.729370 
	C341.333099,72.297295 341.216492,70.865227 341.058289,68.922050 
	C351.186127,68.922050 360.923950,68.922050 371.416443,68.922050 
	C370.453979,63.960438 370.048889,59.459675 368.665710,55.282814 
	C366.342224,48.266579 361.319763,43.910866 353.799774,43.019901 
	C339.134369,41.282360 330.061615,48.483280 328.699005,63.149483 
	C328.349731,66.908585 328.519867,70.840729 329.223694,74.546700 
	C330.655243,82.084778 334.817352,87.796181 342.523254,89.819778 
	C350.940308,92.030121 359.110718,91.521027 365.742767,84.989685 
	C367.527893,83.231674 368.633636,80.783852 370.295502,78.285522 
	C366.989014,77.999542 364.507294,77.629379 362.026215,77.633865 
	C360.724609,77.636223 358.777802,77.881508 358.235321,78.729279 
	C355.904907,82.370979 352.666534,83.330620 348.778229,82.544708 
	C344.489532,81.677864 342.463379,78.587372 341.449707,73.729370 
M309.336945,43.851665 
	C294.618317,39.969372 282.941467,46.379375 280.323639,60.014511 
	C279.704041,63.241547 279.729279,66.654434 279.895172,69.959885 
	C280.791687,87.825340 299.389313,97.156670 314.421814,87.326439 
	C318.918121,84.386147 321.656342,80.349998 322.235138,74.515274 
	C318.064362,74.318680 314.436127,74.147667 310.622162,73.967896 
	C310.208862,75.215149 310.173798,76.640320 309.449249,77.262375 
	C307.191437,79.200768 304.889557,81.691116 302.200562,82.372658 
	C298.767670,83.242729 295.621674,81.148590 294.291077,77.676529 
	C291.510071,70.419617 291.164795,62.870319 294.480377,55.851818 
	C295.547150,53.593700 299.290619,51.489933 301.885620,51.394947 
	C304.201965,51.310158 306.726074,53.960926 308.943085,55.682106 
	C309.729645,56.292759 309.881348,57.721142 310.394714,58.947857 
	C314.256012,58.676147 318.021271,58.411201 322.036591,58.128658 
	C320.439209,50.946445 316.485260,46.468040 309.336945,43.851665 
M113.952164,79.472717 
	C113.952164,67.687874 113.952164,55.903038 113.952164,43.902336 
	C109.785316,43.902336 106.059181,43.902336 102.221649,43.902336 
	C102.221649,59.342094 102.221649,74.552216 102.221649,89.692978 
	C106.257668,89.692978 109.992569,89.692978 113.952164,89.692978 
	C113.952164,86.411377 113.952164,83.435883 113.952164,79.472717 
M113.974525,29.695498 
	C113.241669,28.553946 112.618256,26.535275 111.756371,26.427727 
	C108.587311,26.032288 105.339134,26.270840 102.271759,26.270840 
	C102.271759,29.697109 102.271759,32.397785 102.271759,35.038681 
	C106.234299,35.038681 109.828316,35.038681 113.740303,35.038681 
	C113.822868,33.482632 113.898773,32.052132 113.974525,29.695498 
z"/>
<path fill="#FAFAFA" opacity="1.000000" stroke="none" 
	d="
M60.846886,83.871185 
	C60.846886,86.000824 60.846886,87.648033 60.846886,89.651260 
	C56.597004,89.651260 52.562210,89.651260 48.058025,89.651260 
	C48.058025,79.672363 48.058025,69.729362 48.058025,59.786366 
	C48.058025,49.980988 48.058025,40.175610 48.058025,30.008305 
	C62.867134,30.008305 77.414497,30.008305 92.341553,30.008305 
	C92.341553,32.823616 92.341553,35.699944 92.341553,39.214684 
	C82.011864,39.214684 71.632271,39.214684 61.059387,39.214684 
	C61.059387,45.749081 61.059387,51.663490 61.059387,57.919548 
	C71.170990,57.919548 81.109612,57.919548 91.388596,57.919548 
	C91.388596,61.300888 91.388596,64.346710 91.388596,67.772888 
	C81.342384,67.772888 71.417465,67.772888 60.846886,67.772888 
	C60.846886,73.217239 60.846886,78.302994 60.846886,83.871185 
z"/>
<path fill="#F7F7F7" opacity="1.000000" stroke="none" 
	d="
M178.974457,54.399712 
	C184.170197,42.522224 202.291504,38.647118 211.681900,46.973862 
	C215.642288,50.485676 216.611923,55.114624 216.700500,60.048252 
	C216.799026,65.536537 216.723755,71.027809 216.741409,76.517723 
	C216.754227,80.504547 217.010345,84.302971 222.884491,82.836182 
	C222.884491,85.270859 222.884491,87.207016 222.884491,89.084869 
	C213.330048,92.195793 209.299576,90.718300 205.647903,82.552101 
	C201.886047,87.682434 197.171417,90.910469 190.723602,90.920357 
	C182.475006,90.932999 177.400116,86.651588 176.394592,78.752281 
	C175.406570,70.990585 179.350540,64.872795 186.997833,63.084209 
	C190.513611,62.261929 194.231705,62.256020 197.866913,62.011566 
	C199.991486,61.868690 202.133530,61.985535 204.223221,61.985535 
	C204.837372,54.798523 203.517960,51.652966 199.638306,50.904285 
	C194.735275,49.958126 191.539062,51.804939 190.889053,56.744316 
	C187.346542,56.744316 184.186935,56.865612 181.049454,56.656002 
	C180.298416,56.605827 179.621017,55.453888 178.974457,54.399712 
M203.858566,68.839195 
	C200.872894,68.883423 197.715881,68.345001 194.955887,69.156624 
	C192.756775,69.803299 189.898804,71.806992 189.409210,73.735336 
	C188.830734,76.013771 189.703842,79.936256 191.388748,81.156952 
	C193.091370,82.390472 196.950058,81.985268 199.167984,80.889145 
	C203.650696,78.673714 204.762848,74.197609 203.858566,68.839195 
z"/>
<path fill="#F8F8F8" opacity="1.000000" stroke="none" 
	d="
M137.879608,47.049114 
	C137.958252,48.745167 138.016144,50.035027 138.121078,52.372868 
	C141.879379,46.286469 146.235733,42.738533 152.898544,42.780434 
	C161.780182,42.836285 167.610092,47.564301 167.987778,56.536175 
	C168.448715,67.485222 168.097458,78.468460 168.097458,89.724770 
	C164.338364,89.724770 160.609818,89.724770 156.319244,89.724770 
	C156.319244,82.424057 156.357712,75.146095 156.300674,67.868889 
	C156.277237,64.877098 156.326385,61.840767 155.839996,58.908035 
	C155.269760,55.469883 153.606476,52.585251 149.668213,52.004353 
	C145.819000,51.436592 142.364746,52.627029 140.895569,56.198311 
	C139.483566,59.630531 138.653915,63.487659 138.473328,67.202080 
	C138.111053,74.654442 138.365707,82.136803 138.365707,89.797638 
	C134.248260,89.797638 130.502365,89.797638 126.415558,89.797638 
	C126.415558,74.488892 126.415558,59.391178 126.415558,43.664677 
	C129.320053,43.664677 132.441589,43.446335 135.496521,43.801300 
	C136.382065,43.904194 137.076691,45.650173 137.879608,47.049114 
z"/>
<path fill="#F9F9F9" opacity="1.000000" stroke="none" 
	d="
M239.196136,43.906422 
	C239.841660,46.365101 240.088242,48.665874 240.414795,51.712818 
	C241.423141,50.503265 242.169067,49.646313 242.873886,48.756813 
	C247.054962,43.480354 253.677307,41.339085 260.336792,43.324345 
	C266.469208,45.152477 269.904053,49.628956 270.108368,55.777576 
	C270.482025,67.020760 270.214722,78.285240 270.214722,89.775887 
	C266.549927,89.775887 262.817749,89.775887 258.719543,89.775887 
	C258.719543,81.943336 258.783936,74.331352 258.685974,66.721466 
	C258.649811,63.909004 258.876617,60.819408 257.806061,58.371056 
	C256.736725,55.925568 254.386444,52.686409 252.249344,52.400665 
	C249.513611,52.034874 245.393921,53.476978 243.758987,55.596615 
	C241.743286,58.209866 241.057938,62.291508 240.883148,65.792763 
	C240.487793,73.711937 240.758835,81.664383 240.758835,89.801834 
	C236.519409,89.801834 232.775146,89.801834 228.673462,89.801834 
	C228.673462,74.495422 228.673462,59.388153 228.673462,43.748520 
	C231.906509,43.748520 235.351852,43.748520 239.196136,43.906422 
z"/>
<path fill="#FAFAFA" opacity="1.000000" stroke="none" 
	d="
M341.561462,74.120468 
	C342.463379,78.587372 344.489532,81.677864 348.778229,82.544708 
	C352.666534,83.330620 355.904907,82.370979 358.235321,78.729279 
	C358.777802,77.881508 360.724609,77.636223 362.026215,77.633865 
	C364.507294,77.629379 366.989014,77.999542 370.295502,78.285522 
	C368.633636,80.783852 367.527893,83.231674 365.742767,84.989685 
	C359.110718,91.521027 350.940308,92.030121 342.523254,89.819778 
	C334.817352,87.796181 330.655243,82.084778 329.223694,74.546700 
	C328.519867,70.840729 328.349731,66.908585 328.699005,63.149483 
	C330.061615,48.483280 339.134369,41.282360 353.799774,43.019901 
	C361.319763,43.910866 366.342224,48.266579 368.665710,55.282814 
	C370.048889,59.459675 370.453979,63.960438 371.416443,68.922050 
	C360.923950,68.922050 351.186127,68.922050 341.058289,68.922050 
	C341.216492,70.865227 341.333099,72.297295 341.561462,74.120468 
M342.837402,54.515926 
	C342.175110,56.671043 341.512817,58.826157 340.716400,61.417645 
	C347.190247,61.417645 352.935028,61.417645 359.105286,61.417645 
	C358.644623,56.957211 357.937073,52.866196 353.402130,51.034992 
	C349.440887,49.435432 345.885620,50.341122 342.837402,54.515926 
z"/>
<path fill="#F8F8F8" opacity="1.000000" stroke="none" 
	d="
M309.733826,43.942123 
	C316.485260,46.468040 320.439209,50.946445 322.036591,58.128658 
	C318.021271,58.411201 314.256012,58.676147 310.394714,58.947857 
	C309.881348,57.721142 309.729645,56.292759 308.943085,55.682106 
	C306.726074,53.960926 304.201965,51.310158 301.885620,51.394947 
	C299.290619,51.489933 295.547150,53.593700 294.480377,55.851818 
	C291.164795,62.870319 291.510071,70.419617 294.291077,77.676529 
	C295.621674,81.148590 298.767670,83.242729 302.200562,82.372658 
	C304.889557,81.691116 307.191437,79.200768 309.449249,77.262375 
	C310.173798,76.640320 310.208862,75.215149 310.622162,73.967896 
	C314.436127,74.147667 318.064362,74.318680 322.235138,74.515274 
	C321.656342,80.349998 318.918121,84.386147 314.421814,87.326439 
	C299.389313,97.156670 280.791687,87.825340 279.895172,69.959885 
	C279.729279,66.654434 279.704041,63.241547 280.323639,60.014511 
	C282.941467,46.379375 294.618317,39.969372 309.733826,43.942123 
z"/>
<path fill="#FDFDFD" opacity="1.000000" stroke="none" 
	d="
M113.952164,79.966553 
	C113.952164,83.435883 113.952164,86.411377 113.952164,89.692978 
	C109.992569,89.692978 106.257668,89.692978 102.221649,89.692978 
	C102.221649,74.552216 102.221649,59.342094 102.221649,43.902336 
	C106.059181,43.902336 109.785316,43.902336 113.952164,43.902336 
	C113.952164,55.903038 113.952164,67.687874 113.952164,79.966553 
z"/>
<path fill="#F4F4F4" opacity="1.000000" stroke="none" 
	d="
M113.974602,30.158566 
	C113.898773,32.052132 113.822868,33.482632 113.740303,35.038681 
	C109.828316,35.038681 106.234299,35.038681 102.271759,35.038681 
	C102.271759,32.397785 102.271759,29.697109 102.271759,26.270840 
	C105.339134,26.270840 108.587311,26.032288 111.756371,26.427727 
	C112.618256,26.535275 113.241669,28.553946 113.974602,30.158566 
z"/>
<path fill="#1B1B1B" opacity="1.000000" stroke="none" 
	d="
M204.179977,69.123604 
	C204.762848,74.197609 203.650696,78.673714 199.167984,80.889145 
	C196.950058,81.985268 193.091370,82.390472 191.388748,81.156952 
	C189.703842,79.936256 188.830734,76.013771 189.409210,73.735336 
	C189.898804,71.806992 192.756775,69.803299 194.955887,69.156624 
	C197.715881,68.345001 200.872894,68.883423 204.179977,69.123604 
z"/>
<path fill="#272727" opacity="1.000000" stroke="none" 
	d="
M343.007996,54.175224 
	C345.885620,50.341122 349.440887,49.435432 353.402130,51.034992 
	C357.937073,52.866196 358.644623,56.957211 359.105286,61.417645 
	C352.935028,61.417645 347.190247,61.417645 340.716400,61.417645 
	C341.512817,58.826157 342.175110,56.671043 343.007996,54.175224 
z"/>
</svg>